<mxfile host="app.diagrams.net" agent="Mozilla/5.0 (X11; Linux x86_64; rv:138.0) Gecko/20100101 Firefox/138.0" version="27.0.2">
  <diagram id="WqP_wbewQgbYj3Ffo411" name="sequenceDailyPlan">
    <mxGraphModel dx="872" dy="474" grid="1" gridSize="10" guides="1" tooltips="1" connect="1" arrows="1" fold="1" page="1" pageScale="1" pageWidth="827" pageHeight="1169" math="0" shadow="0">
      <root>
        <mxCell id="0" />
        <mxCell id="1" parent="0" />
        <mxCell id="aGE_aSSu1TB4Cfroxpcg-2" value="GUIOverview Edit-Export" style="shape=umlLifeline;perimeter=lifelinePerimeter;whiteSpace=wrap;html=1;container=1;dropTarget=0;collapsible=0;recursiveResize=0;outlineConnect=0;portConstraint=eastwest;newEdgeStyle={&quot;curved&quot;:0,&quot;rounded&quot;:0};fillColor=#CC99FF;strokeColor=#000000;" parent="1" vertex="1">
          <mxGeometry x="340" y="90" width="100" height="1360" as="geometry" />
        </mxCell>
        <mxCell id="1l65J3mrAHwqdtXv258N-4" value="" style="html=1;points=[[0,0,0,0,5],[0,1,0,0,-5],[1,0,0,0,5],[1,1,0,0,-5]];perimeter=orthogonalPerimeter;outlineConnect=0;targetShapes=umlLifeline;portConstraint=eastwest;newEdgeStyle={&quot;curved&quot;:0,&quot;rounded&quot;:0};" parent="aGE_aSSu1TB4Cfroxpcg-2" vertex="1">
          <mxGeometry x="55" y="940" width="10" height="40" as="geometry" />
        </mxCell>
        <mxCell id="1l65J3mrAHwqdtXv258N-5" value="displayConfirmationMessage()" style="html=1;align=left;spacingLeft=2;endArrow=block;rounded=0;edgeStyle=orthogonalEdgeStyle;curved=0;rounded=0;" parent="aGE_aSSu1TB4Cfroxpcg-2" source="DfGYp07ndYnJAXJ8LvYj-9" target="1l65J3mrAHwqdtXv258N-4" edge="1">
          <mxGeometry relative="1" as="geometry">
            <mxPoint x="55" y="930" as="sourcePoint" />
            <Array as="points">
              <mxPoint x="85" y="930" />
              <mxPoint x="85" y="960" />
            </Array>
          </mxGeometry>
        </mxCell>
        <mxCell id="DfGYp07ndYnJAXJ8LvYj-9" value="" style="html=1;points=[[0,0,0,0,5],[0,1,0,0,-5],[1,0,0,0,5],[1,1,0,0,-5]];perimeter=orthogonalPerimeter;outlineConnect=0;targetShapes=umlLifeline;portConstraint=eastwest;newEdgeStyle={&quot;curved&quot;:0,&quot;rounded&quot;:0};" parent="aGE_aSSu1TB4Cfroxpcg-2" vertex="1">
          <mxGeometry x="45" y="920" width="10" height="60" as="geometry" />
        </mxCell>
        <mxCell id="Szz1z3nv-gSLGO6KmhNF-1" value="" style="html=1;points=[[0,0,0,0,5],[0,1,0,0,-5],[1,0,0,0,5],[1,1,0,0,-5]];perimeter=orthogonalPerimeter;outlineConnect=0;targetShapes=umlLifeline;portConstraint=eastwest;newEdgeStyle={&quot;curved&quot;:0,&quot;rounded&quot;:0};" parent="aGE_aSSu1TB4Cfroxpcg-2" vertex="1">
          <mxGeometry x="55" y="1210" width="10" height="40" as="geometry" />
        </mxCell>
        <mxCell id="Szz1z3nv-gSLGO6KmhNF-2" value="displayConfirmationMessage()" style="html=1;align=left;spacingLeft=2;endArrow=block;rounded=0;edgeStyle=orthogonalEdgeStyle;curved=0;rounded=0;" parent="aGE_aSSu1TB4Cfroxpcg-2" source="Szz1z3nv-gSLGO6KmhNF-3" target="Szz1z3nv-gSLGO6KmhNF-1" edge="1">
          <mxGeometry relative="1" as="geometry">
            <mxPoint x="55" y="1200" as="sourcePoint" />
            <Array as="points">
              <mxPoint x="85" y="1200" />
              <mxPoint x="85" y="1230" />
            </Array>
          </mxGeometry>
        </mxCell>
        <mxCell id="Szz1z3nv-gSLGO6KmhNF-3" value="" style="html=1;points=[[0,0,0,0,5],[0,1,0,0,-5],[1,0,0,0,5],[1,1,0,0,-5]];perimeter=orthogonalPerimeter;outlineConnect=0;targetShapes=umlLifeline;portConstraint=eastwest;newEdgeStyle={&quot;curved&quot;:0,&quot;rounded&quot;:0};" parent="aGE_aSSu1TB4Cfroxpcg-2" vertex="1">
          <mxGeometry x="45" y="1190" width="10" height="60" as="geometry" />
        </mxCell>
        <mxCell id="Szz1z3nv-gSLGO6KmhNF-4" value="trashBtnPress()" style="html=1;verticalAlign=bottom;endArrow=block;curved=0;rounded=0;" parent="aGE_aSSu1TB4Cfroxpcg-2" edge="1">
          <mxGeometry width="80" relative="1" as="geometry">
            <mxPoint x="-80" y="1190" as="sourcePoint" />
            <mxPoint x="50" y="1190" as="targetPoint" />
          </mxGeometry>
        </mxCell>
        <mxCell id="Szz1z3nv-gSLGO6KmhNF-5" value="Click &quot;cancel&quot;" style="html=1;verticalAlign=bottom;endArrow=block;curved=0;rounded=0;" parent="aGE_aSSu1TB4Cfroxpcg-2" edge="1">
          <mxGeometry width="80" relative="1" as="geometry">
            <mxPoint x="-80" y="1240" as="sourcePoint" />
            <mxPoint x="50" y="1240" as="targetPoint" />
          </mxGeometry>
        </mxCell>
        <mxCell id="PkcIOOpZHe1bWuVh0img-1" value="DailyPlan" style="shape=umlLifeline;perimeter=lifelinePerimeter;whiteSpace=wrap;html=1;container=1;dropTarget=0;collapsible=0;recursiveResize=0;outlineConnect=0;portConstraint=eastwest;newEdgeStyle={&quot;curved&quot;:0,&quot;rounded&quot;:0};fillColor=#A9C4EB;" parent="1" vertex="1">
          <mxGeometry x="1580" y="92.5" width="100" height="1360" as="geometry" />
        </mxCell>
        <mxCell id="E_KaGtFfLZ0l1nR9gNjg-3" value="" style="html=1;points=[[0,0,0,0,5],[0,1,0,0,-5],[1,0,0,0,5],[1,1,0,0,-5]];perimeter=orthogonalPerimeter;outlineConnect=0;targetShapes=umlLifeline;portConstraint=eastwest;newEdgeStyle={&quot;curved&quot;:0,&quot;rounded&quot;:0};" parent="PkcIOOpZHe1bWuVh0img-1" vertex="1">
          <mxGeometry x="45" y="140" width="10" height="35" as="geometry" />
        </mxCell>
        <mxCell id="n3x34P3B_e9gPfV4-v7e-8" value="" style="html=1;points=[[0,0,0,0,5],[0,1,0,0,-5],[1,0,0,0,5],[1,1,0,0,-5]];perimeter=orthogonalPerimeter;outlineConnect=0;targetShapes=umlLifeline;portConstraint=eastwest;newEdgeStyle={&quot;curved&quot;:0,&quot;rounded&quot;:0};" parent="PkcIOOpZHe1bWuVh0img-1" vertex="1">
          <mxGeometry x="45" y="627.5" width="10" height="32.5" as="geometry" />
        </mxCell>
        <mxCell id="Tg0Yv-Jdgaz1QOgsbmeL-2" value="User" style="shape=umlLifeline;perimeter=lifelinePerimeter;whiteSpace=wrap;html=1;container=1;dropTarget=0;collapsible=0;recursiveResize=0;outlineConnect=0;portConstraint=eastwest;newEdgeStyle={&quot;curved&quot;:0,&quot;rounded&quot;:0};" parent="1" vertex="1">
          <mxGeometry x="210" y="90" width="100" height="1360" as="geometry" />
        </mxCell>
        <mxCell id="Tg0Yv-Jdgaz1QOgsbmeL-6" value="ActivityController" style="shape=umlLifeline;perimeter=lifelinePerimeter;whiteSpace=wrap;html=1;container=1;dropTarget=0;collapsible=0;recursiveResize=0;outlineConnect=0;portConstraint=eastwest;newEdgeStyle={&quot;curved&quot;:0,&quot;rounded&quot;:0};fillColor=#FF6666;" parent="1" vertex="1">
          <mxGeometry x="1080" y="90" width="110" height="1360" as="geometry" />
        </mxCell>
        <mxCell id="E_KaGtFfLZ0l1nR9gNjg-4" value="" style="html=1;points=[[0,0,0,0,5],[0,1,0,0,-5],[1,0,0,0,5],[1,1,0,0,-5]];perimeter=orthogonalPerimeter;outlineConnect=0;targetShapes=umlLifeline;portConstraint=eastwest;newEdgeStyle={&quot;curved&quot;:0,&quot;rounded&quot;:0};" parent="Tg0Yv-Jdgaz1QOgsbmeL-6" vertex="1">
          <mxGeometry x="50" y="120" width="10" height="100" as="geometry" />
        </mxCell>
        <mxCell id="DfGYp07ndYnJAXJ8LvYj-3" value="" style="html=1;points=[[0,0,0,0,5],[0,1,0,0,-5],[1,0,0,0,5],[1,1,0,0,-5]];perimeter=orthogonalPerimeter;outlineConnect=0;targetShapes=umlLifeline;portConstraint=eastwest;newEdgeStyle={&quot;curved&quot;:0,&quot;rounded&quot;:0};" parent="Tg0Yv-Jdgaz1QOgsbmeL-6" vertex="1">
          <mxGeometry x="50" y="1010" width="10" height="100" as="geometry" />
        </mxCell>
        <mxCell id="Tg0Yv-Jdgaz1QOgsbmeL-13" value="getActivitiesForDailyPlan()" style="html=1;verticalAlign=bottom;endArrow=block;curved=0;rounded=0;" parent="1" target="Tg0Yv-Jdgaz1QOgsbmeL-6" edge="1">
          <mxGeometry x="0.2882" width="80" relative="1" as="geometry">
            <mxPoint x="389.3888888888889" y="209.99999999999977" as="sourcePoint" />
            <mxPoint x="594.4999999999998" y="209.99999999999977" as="targetPoint" />
            <mxPoint as="offset" />
          </mxGeometry>
        </mxCell>
        <mxCell id="aoZU7ikWUYjEi4byDJeZ-1" value="selectDailyPlan()" style="html=1;verticalAlign=bottom;endArrow=block;curved=0;rounded=0;" parent="1" edge="1">
          <mxGeometry width="80" relative="1" as="geometry">
            <mxPoint x="260" y="170" as="sourcePoint" />
            <mxPoint x="390" y="170" as="targetPoint" />
          </mxGeometry>
        </mxCell>
        <mxCell id="JAFXTZgLxw23LnXLHFED-1" value="getActivities()" style="html=1;verticalAlign=bottom;endArrow=block;curved=0;rounded=0;" parent="1" source="E_KaGtFfLZ0l1nR9gNjg-4" edge="1">
          <mxGeometry x="0.3102" width="80" relative="1" as="geometry">
            <mxPoint x="1400" y="229.5" as="sourcePoint" />
            <mxPoint x="1629.5" y="229.5" as="targetPoint" />
            <mxPoint as="offset" />
          </mxGeometry>
        </mxCell>
        <mxCell id="KQH1SKWBEJLaIgaEWk4L-1" value="activities: List" style="html=1;verticalAlign=bottom;endArrow=open;dashed=1;endSize=8;curved=0;rounded=0;" parent="1" target="E_KaGtFfLZ0l1nR9gNjg-4" edge="1">
          <mxGeometry x="-0.3102" relative="1" as="geometry">
            <mxPoint x="1629.5" y="259.5" as="sourcePoint" />
            <mxPoint x="1400" y="259.5" as="targetPoint" />
            <mxPoint x="1" as="offset" />
          </mxGeometry>
        </mxCell>
        <mxCell id="E_KaGtFfLZ0l1nR9gNjg-1" value="showActivitiesForDailyPlan(activitieslist)" style="html=1;verticalAlign=bottom;endArrow=open;dashed=1;endSize=8;curved=0;rounded=0;exitX=0;exitY=1;exitDx=0;exitDy=-5;exitPerimeter=0;" parent="1" source="E_KaGtFfLZ0l1nR9gNjg-4" target="aGE_aSSu1TB4Cfroxpcg-2" edge="1">
          <mxGeometry x="-0.24" relative="1" as="geometry">
            <mxPoint x="594.4999999999998" y="309.9999999999998" as="sourcePoint" />
            <mxPoint x="409.3888888888889" y="309.9999999999998" as="targetPoint" />
            <mxPoint x="1" as="offset" />
          </mxGeometry>
        </mxCell>
        <mxCell id="4J2uMw9ZS5hvI9Na2k7J-1" value="show Activities" style="html=1;verticalAlign=bottom;endArrow=open;dashed=1;endSize=8;curved=0;rounded=0;" parent="1" target="Tg0Yv-Jdgaz1QOgsbmeL-2" edge="1">
          <mxGeometry relative="1" as="geometry">
            <mxPoint x="390" y="320" as="sourcePoint" />
            <mxPoint x="310" y="320" as="targetPoint" />
          </mxGeometry>
        </mxCell>
        <mxCell id="WFdk8Rlg6KTglFEH9ufD-1" value="plusBtnPress()" style="html=1;verticalAlign=bottom;endArrow=block;curved=0;rounded=0;" parent="1" edge="1">
          <mxGeometry width="80" relative="1" as="geometry">
            <mxPoint x="260" y="360" as="sourcePoint" />
            <mxPoint x="389.5" y="360" as="targetPoint" />
          </mxGeometry>
        </mxCell>
        <mxCell id="ElrfYuBqltLPiWq-YYCS-1" value="showActivitiesNearYou()" style="html=1;verticalAlign=bottom;endArrow=block;curved=0;rounded=0;" parent="1" edge="1">
          <mxGeometry x="-0.1778" width="80" relative="1" as="geometry">
            <mxPoint x="390" y="409.5" as="sourcePoint" />
            <mxPoint x="949.5" y="409.5" as="targetPoint" />
            <mxPoint y="1" as="offset" />
          </mxGeometry>
        </mxCell>
        <mxCell id="Ax3whgw_T1-yxvihnR64-1" value="SuggestedActivitiesGUI" style="shape=umlLifeline;perimeter=lifelinePerimeter;whiteSpace=wrap;html=1;container=1;dropTarget=0;collapsible=0;recursiveResize=0;outlineConnect=0;portConstraint=eastwest;newEdgeStyle={&quot;curved&quot;:0,&quot;rounded&quot;:0};fillColor=#CC99FF;strokeColor=#000000;" parent="1" vertex="1">
          <mxGeometry x="880" y="95" width="140" height="1355" as="geometry" />
        </mxCell>
        <mxCell id="MKoDE74WcYWKHpxAEfUw-1" value="" style="html=1;points=[[0,0,0,0,5],[0,1,0,0,-5],[1,0,0,0,5],[1,1,0,0,-5]];perimeter=orthogonalPerimeter;outlineConnect=0;targetShapes=umlLifeline;portConstraint=eastwest;newEdgeStyle={&quot;curved&quot;:0,&quot;rounded&quot;:0};" parent="Ax3whgw_T1-yxvihnR64-1" vertex="1">
          <mxGeometry x="65" y="410" width="10" height="80" as="geometry" />
        </mxCell>
        <mxCell id="MKoDE74WcYWKHpxAEfUw-2" value="" style="html=1;points=[[0,0,0,0,5],[0,1,0,0,-5],[1,0,0,0,5],[1,1,0,0,-5]];perimeter=orthogonalPerimeter;outlineConnect=0;targetShapes=umlLifeline;portConstraint=eastwest;newEdgeStyle={&quot;curved&quot;:0,&quot;rounded&quot;:0};" parent="Ax3whgw_T1-yxvihnR64-1" vertex="1">
          <mxGeometry x="72" y="430" width="10" height="40" as="geometry" />
        </mxCell>
        <mxCell id="MKoDE74WcYWKHpxAEfUw-3" value="" style="html=1;align=left;spacingLeft=2;endArrow=block;rounded=0;edgeStyle=orthogonalEdgeStyle;curved=0;rounded=0;" parent="Ax3whgw_T1-yxvihnR64-1" target="MKoDE74WcYWKHpxAEfUw-2" edge="1">
          <mxGeometry relative="1" as="geometry">
            <mxPoint x="77" y="410" as="sourcePoint" />
            <Array as="points">
              <mxPoint x="107" y="440" />
            </Array>
          </mxGeometry>
        </mxCell>
        <mxCell id="EgIWQFsW6cnL1hNPfe0N-1" value="displayStartEndTime()" style="edgeLabel;html=1;align=center;verticalAlign=middle;resizable=0;points=[];" parent="MKoDE74WcYWKHpxAEfUw-3" connectable="0" vertex="1">
          <mxGeometry x="-0.1247" y="3" relative="1" as="geometry">
            <mxPoint x="50" y="13" as="offset" />
          </mxGeometry>
        </mxCell>
        <mxCell id="m-DqKq3IPHOclDg6Ofle-1" value="showActivitiesHighlyRated()" style="html=1;verticalAlign=bottom;endArrow=block;curved=0;rounded=0;" parent="1" edge="1">
          <mxGeometry x="-0.1768" width="80" relative="1" as="geometry">
            <mxPoint x="389.5" y="440" as="sourcePoint" />
            <mxPoint x="949.5" y="440" as="targetPoint" />
            <mxPoint x="1" as="offset" />
          </mxGeometry>
        </mxCell>
        <mxCell id="kA7u2um6Day0FUwQb8Ss-1" value="par" style="shape=umlFrame;whiteSpace=wrap;html=1;pointerEvents=0;" parent="1" vertex="1">
          <mxGeometry x="370" y="370" width="600" height="80" as="geometry" />
        </mxCell>
        <mxCell id="4ilm1kZyg1qBE6PC6mPd-2" value="Show Suggested Activities" style="html=1;verticalAlign=bottom;endArrow=open;dashed=1;endSize=8;curved=0;rounded=0;" parent="1" target="Tg0Yv-Jdgaz1QOgsbmeL-2" edge="1">
          <mxGeometry relative="1" as="geometry">
            <mxPoint x="950" y="470" as="sourcePoint" />
            <mxPoint x="870" y="470" as="targetPoint" />
          </mxGeometry>
        </mxCell>
        <mxCell id="4ilm1kZyg1qBE6PC6mPd-3" value="pressSuggestedActivity()" style="html=1;verticalAlign=bottom;endArrow=block;curved=0;rounded=0;" parent="1" target="Ax3whgw_T1-yxvihnR64-1" edge="1">
          <mxGeometry width="80" relative="1" as="geometry">
            <mxPoint x="260" y="500" as="sourcePoint" />
            <mxPoint x="340" y="500" as="targetPoint" />
          </mxGeometry>
        </mxCell>
        <mxCell id="ZZqwUbllqiASD9FlUU82-1" value="setStartTime()" style="html=1;verticalAlign=bottom;endArrow=block;curved=0;rounded=0;" parent="1" edge="1">
          <mxGeometry width="80" relative="1" as="geometry">
            <mxPoint x="260.5" y="540" as="sourcePoint" />
            <mxPoint x="950" y="540" as="targetPoint" />
          </mxGeometry>
        </mxCell>
        <mxCell id="mBEZ4GbIkLvIrKvou7-Y-1" value="setEndTime()" style="html=1;verticalAlign=bottom;endArrow=block;curved=0;rounded=0;" parent="1" edge="1">
          <mxGeometry width="80" relative="1" as="geometry">
            <mxPoint x="260" y="560" as="sourcePoint" />
            <mxPoint x="950" y="560" as="targetPoint" />
          </mxGeometry>
        </mxCell>
        <mxCell id="mBEZ4GbIkLvIrKvou7-Y-2" value="par" style="shape=umlFrame;whiteSpace=wrap;html=1;pointerEvents=0;" parent="1" vertex="1">
          <mxGeometry x="250" y="510" width="700" height="70" as="geometry" />
        </mxCell>
        <mxCell id="mBEZ4GbIkLvIrKvou7-Y-4" value="pressSave()" style="html=1;verticalAlign=bottom;endArrow=block;curved=0;rounded=0;" parent="1" edge="1">
          <mxGeometry width="80" relative="1" as="geometry">
            <mxPoint x="260" y="620" as="sourcePoint" />
            <mxPoint x="949.5" y="620" as="targetPoint" />
          </mxGeometry>
        </mxCell>
        <mxCell id="WOJ-0o75hxYc7BvxEgkP-1" value="&lt;span style=&quot;font-size: 12px; text-align: left; text-wrap-mode: wrap; background-color: rgb(236, 236, 236);&quot;&gt;addActivityToDailyPlan(activityId, starTime, endTime)&lt;/span&gt;" style="html=1;verticalAlign=bottom;endArrow=block;curved=0;rounded=0;" parent="1" edge="1">
          <mxGeometry width="80" relative="1" as="geometry">
            <mxPoint x="950" y="640" as="sourcePoint" />
            <mxPoint x="1134.5" y="640" as="targetPoint" />
          </mxGeometry>
        </mxCell>
        <mxCell id="n3x34P3B_e9gPfV4-v7e-1" value="addActivity(A&lt;span style=&quot;font-size: 12px; text-align: left; text-wrap-mode: wrap; background-color: rgb(236, 236, 236);&quot;&gt;ctivity, starTime, endTime)&lt;/span&gt;" style="html=1;verticalAlign=bottom;endArrow=block;curved=0;rounded=0;" parent="1" edge="1">
          <mxGeometry width="80" relative="1" as="geometry">
            <mxPoint x="1134.3235294117649" y="719.9999999999998" as="sourcePoint" />
            <mxPoint x="1629.4999999999995" y="719.9999999999998" as="targetPoint" />
          </mxGeometry>
        </mxCell>
        <mxCell id="n3x34P3B_e9gPfV4-v7e-9" value="Activity added" style="html=1;verticalAlign=bottom;endArrow=open;dashed=1;endSize=8;curved=0;rounded=0;" parent="1" target="Tg0Yv-Jdgaz1QOgsbmeL-6" edge="1">
          <mxGeometry relative="1" as="geometry">
            <mxPoint x="1630" y="750" as="sourcePoint" />
            <mxPoint x="1400" y="750" as="targetPoint" />
          </mxGeometry>
        </mxCell>
        <mxCell id="7nDjnUEKwK8vNX2vWsfT-1" value="showSuccesMessageForAddedActivity()" style="html=1;verticalAlign=bottom;endArrow=open;dashed=1;endSize=8;curved=0;rounded=0;" parent="1" source="Tg0Yv-Jdgaz1QOgsbmeL-6" edge="1">
          <mxGeometry relative="1" as="geometry">
            <mxPoint x="1130" y="759" as="sourcePoint" />
            <mxPoint x="390" y="759.5" as="targetPoint" />
          </mxGeometry>
        </mxCell>
        <mxCell id="1HHlVZ_Q0GHZmf1My0H4-1" value="Show Success Message" style="html=1;verticalAlign=bottom;endArrow=open;dashed=1;endSize=8;curved=0;rounded=0;" parent="1" edge="1">
          <mxGeometry relative="1" as="geometry">
            <mxPoint x="390.5" y="779.5" as="sourcePoint" />
            <mxPoint x="260" y="779.5" as="targetPoint" />
          </mxGeometry>
        </mxCell>
        <mxCell id="mqi8pAQuBt6U-uOmXDRt-1" value="alt" style="shape=umlFrame;whiteSpace=wrap;html=1;pointerEvents=0;" parent="1" vertex="1">
          <mxGeometry x="250" y="590" width="1140" height="370" as="geometry" />
        </mxCell>
        <mxCell id="mqi8pAQuBt6U-uOmXDRt-6" value="[Press Save]" style="text;align=center;fontStyle=1;verticalAlign=middle;spacingLeft=3;spacingRight=3;strokeColor=none;rotatable=0;points=[[0,0.5],[1,0.5]];portConstraint=eastwest;html=1;" parent="1" vertex="1">
          <mxGeometry x="460" y="590" width="80" height="26" as="geometry" />
        </mxCell>
        <mxCell id="q3eW3A3-4Tn_57DnqN_P-1" value="" style="endArrow=none;startArrow=none;endFill=0;startFill=0;endSize=8;html=1;verticalAlign=bottom;dashed=1;labelBackgroundColor=none;dashPattern=10 10;rounded=0;entryX=0.998;entryY=0.502;entryDx=0;entryDy=0;entryPerimeter=0;" parent="1" edge="1">
          <mxGeometry width="160" relative="1" as="geometry">
            <mxPoint x="250" y="790.0000000000001" as="sourcePoint" />
            <mxPoint x="1387.7200000000003" y="791.33" as="targetPoint" />
          </mxGeometry>
        </mxCell>
        <mxCell id="q3eW3A3-4Tn_57DnqN_P-2" value="[Press Discard]" style="text;align=center;fontStyle=1;verticalAlign=middle;spacingLeft=3;spacingRight=3;strokeColor=none;rotatable=0;points=[[0,0.5],[1,0.5]];portConstraint=eastwest;html=1;" parent="1" vertex="1">
          <mxGeometry x="460" y="790" width="80" height="26" as="geometry" />
        </mxCell>
        <mxCell id="7h0OYVxzYUpfr7QS1MaN-1" value="pressDiscard()" style="html=1;verticalAlign=bottom;endArrow=block;curved=0;rounded=0;" parent="1" edge="1">
          <mxGeometry width="80" relative="1" as="geometry">
            <mxPoint x="260" y="830" as="sourcePoint" />
            <mxPoint x="950" y="830" as="targetPoint" />
          </mxGeometry>
        </mxCell>
        <mxCell id="c1I7HbsPMoemBE3gtJq9-1" value="showDiscardMessage()" style="html=1;verticalAlign=bottom;endArrow=open;dashed=1;endSize=8;curved=0;rounded=0;" parent="1" target="aGE_aSSu1TB4Cfroxpcg-2" edge="1">
          <mxGeometry relative="1" as="geometry">
            <mxPoint x="1130" y="900" as="sourcePoint" />
            <mxPoint x="1050" y="900" as="targetPoint" />
          </mxGeometry>
        </mxCell>
        <mxCell id="c1I7HbsPMoemBE3gtJq9-2" value="discardChanges()" style="html=1;verticalAlign=bottom;endArrow=block;curved=0;rounded=0;" parent="1" target="Tg0Yv-Jdgaz1QOgsbmeL-6" edge="1">
          <mxGeometry width="80" relative="1" as="geometry">
            <mxPoint x="950" y="850" as="sourcePoint" />
            <mxPoint x="1030" y="850" as="targetPoint" />
          </mxGeometry>
        </mxCell>
        <mxCell id="cZtV7Si1bXTCuqjvPu-8-1" value="Show Discard Message" style="html=1;verticalAlign=bottom;endArrow=open;dashed=1;endSize=8;curved=0;rounded=0;" parent="1" edge="1">
          <mxGeometry relative="1" as="geometry">
            <mxPoint x="391" y="920" as="sourcePoint" />
            <mxPoint x="260" y="920" as="targetPoint" />
          </mxGeometry>
        </mxCell>
        <mxCell id="1l65J3mrAHwqdtXv258N-1" value="trashBtnPress()" style="html=1;verticalAlign=bottom;endArrow=block;curved=0;rounded=0;" parent="1" target="aGE_aSSu1TB4Cfroxpcg-2" edge="1">
          <mxGeometry width="80" relative="1" as="geometry">
            <mxPoint x="260" y="1010" as="sourcePoint" />
            <mxPoint x="340" y="1010" as="targetPoint" />
          </mxGeometry>
        </mxCell>
        <mxCell id="DfGYp07ndYnJAXJ8LvYj-1" value="Click &quot;yes&quot;" style="html=1;verticalAlign=bottom;endArrow=block;curved=0;rounded=0;" parent="1" edge="1">
          <mxGeometry width="80" relative="1" as="geometry">
            <mxPoint x="260" y="1060" as="sourcePoint" />
            <mxPoint x="390" y="1060" as="targetPoint" />
          </mxGeometry>
        </mxCell>
        <mxCell id="DfGYp07ndYnJAXJ8LvYj-2" value="removeActivityFromDailyPlan(activity)" style="html=1;verticalAlign=bottom;endArrow=block;curved=0;rounded=0;" parent="1" target="Tg0Yv-Jdgaz1QOgsbmeL-6" edge="1">
          <mxGeometry width="80" relative="1" as="geometry">
            <mxPoint x="390" y="1100" as="sourcePoint" />
            <mxPoint x="470" y="1100" as="targetPoint" />
          </mxGeometry>
        </mxCell>
        <mxCell id="DfGYp07ndYnJAXJ8LvYj-4" value="removeActivity(Αctivity)" style="html=1;verticalAlign=bottom;endArrow=block;curved=0;rounded=0;" parent="1" target="PkcIOOpZHe1bWuVh0img-1" edge="1">
          <mxGeometry width="80" relative="1" as="geometry">
            <mxPoint x="1140" y="1120" as="sourcePoint" />
            <mxPoint x="1220" y="1120" as="targetPoint" />
          </mxGeometry>
        </mxCell>
        <mxCell id="DfGYp07ndYnJAXJ8LvYj-5" value="Removed Successfully" style="html=1;verticalAlign=bottom;endArrow=open;dashed=1;endSize=8;curved=0;rounded=0;" parent="1" edge="1">
          <mxGeometry relative="1" as="geometry">
            <mxPoint x="1629.4999999999995" y="1169" as="sourcePoint" />
            <mxPoint x="1140" y="1169" as="targetPoint" />
          </mxGeometry>
        </mxCell>
        <mxCell id="RADixJF4P8AjlCYuMMTT-1" value="showSuccessMessageForRemovedActivity()" style="html=1;verticalAlign=bottom;endArrow=open;dashed=1;endSize=8;curved=0;rounded=0;" parent="1" edge="1">
          <mxGeometry relative="1" as="geometry">
            <mxPoint x="1130" y="1200" as="sourcePoint" />
            <mxPoint x="390" y="1200" as="targetPoint" />
          </mxGeometry>
        </mxCell>
        <mxCell id="H0n89MjBYFHmUQIK-D4S-1" value="Show success message" style="html=1;verticalAlign=bottom;endArrow=open;dashed=1;endSize=8;curved=0;rounded=0;" parent="1" target="Tg0Yv-Jdgaz1QOgsbmeL-2" edge="1">
          <mxGeometry relative="1" as="geometry">
            <mxPoint x="390" y="1220" as="sourcePoint" />
            <mxPoint x="310" y="1220" as="targetPoint" />
          </mxGeometry>
        </mxCell>
        <mxCell id="hdgMlUW0omyifFB7XqxO-1" value="Activity" style="shape=umlLifeline;perimeter=lifelinePerimeter;whiteSpace=wrap;html=1;container=1;dropTarget=0;collapsible=0;recursiveResize=0;outlineConnect=0;portConstraint=eastwest;newEdgeStyle={&quot;curved&quot;:0,&quot;rounded&quot;:0};fillColor=#A9C4EB;" parent="1" vertex="1">
          <mxGeometry x="1250" y="90" width="100" height="1360" as="geometry" />
        </mxCell>
        <mxCell id="hdgMlUW0omyifFB7XqxO-6" value="" style="html=1;points=[[0,0,0,0,5],[0,1,0,0,-5],[1,0,0,0,5],[1,1,0,0,-5]];perimeter=orthogonalPerimeter;outlineConnect=0;targetShapes=umlLifeline;portConstraint=eastwest;newEdgeStyle={&quot;curved&quot;:0,&quot;rounded&quot;:0};" parent="hdgMlUW0omyifFB7XqxO-1" vertex="1">
          <mxGeometry x="45" y="560" width="10" height="30" as="geometry" />
        </mxCell>
        <mxCell id="hdgMlUW0omyifFB7XqxO-2" value="getActivity(activityId)" style="html=1;verticalAlign=bottom;endArrow=block;curved=0;rounded=0;" parent="1" source="Tg0Yv-Jdgaz1QOgsbmeL-6" edge="1">
          <mxGeometry width="80" relative="1" as="geometry">
            <mxPoint x="1140" y="650" as="sourcePoint" />
            <mxPoint x="1299.4999999999995" y="650" as="targetPoint" />
          </mxGeometry>
        </mxCell>
        <mxCell id="hdgMlUW0omyifFB7XqxO-3" value="Activity" style="html=1;verticalAlign=bottom;endArrow=open;dashed=1;endSize=8;curved=0;rounded=0;" parent="1" target="Tg0Yv-Jdgaz1QOgsbmeL-6" edge="1">
          <mxGeometry relative="1" as="geometry">
            <mxPoint x="1299.4999999999995" y="675" as="sourcePoint" />
            <mxPoint x="1130" y="675" as="targetPoint" />
          </mxGeometry>
        </mxCell>
      </root>
    </mxGraphModel>
  </diagram>
</mxfile>
